Coordinates
version=1
nRows=15
nColumns=38
inDegrees=yes

Units are S.I. units (second, meters, Newtons, ...)
Angles are in degrees.

endheader
time	pelvis_tilt	pelvis_list	pelvis_rotation	pelvis_tx	pelvis_ty	pelvis_tz	hip_flexion_r	hip_adduction_r	hip_rotation_r	knee_angle_r	ankle_angle_r	subtalar_angle_r	mtp_angle_r	hip_flexion_l	hip_adduction_l	hip_rotation_l	knee_angle_l	ankle_angle_l	subtalar_angle_l	mtp_angle_l	lumbar_extension	lumbar_bending	lumbar_rotation	arm_flex_r	arm_add_r	arm_rot_r	elbow_flex_r	pro_sup_r	wrist_flex_r	wrist_dev_r	arm_flex_l	arm_add_l	arm_rot_l	elbow_flex_l	pro_sup_l	wrist_flex_l	wrist_dev_l
      0.00000000	     -5.65404185	      3.42666334	     -1.42478638	     -0.05208244	      0.85299947	      2.54834973	     43.12763175	      0.67277967	      0.02035142	    -88.04675351	      0.26284536	      0.00000000	      0.00000000	     -1.33353834	      3.22508654	      5.16329359	    -24.49779780	      3.60051911	      0.00000000	      0.00000000	     -6.04823861	     -6.89898067	     -5.14353071	    -30.77581140	    -25.89656921	     10.87826703	    116.77579914	     79.55109662	      0.00000000	      0.00000000	     13.00593028	    -20.28652513	      9.78383651	    120.10192642	     94.46074988	      0.00000000	      0.00000000
      0.01000000	     -5.91673191	      2.15649504	     -1.73161710	     -0.05028234	      0.86272609	      2.55005652	     43.23292105	      1.79192063	     -0.65124252	    -81.70351962	      0.31944661	      0.00000000	      0.00000000	     -4.63588184	      1.25398306	      2.77118064	    -20.96398930	     -4.05231323	      0.00000000	      0.00000000	     -5.21717582	     -5.35326203	     -5.92938953	    -33.33345142	    -26.45502731	      8.82692423	    117.95735915	     79.16987921	      0.00000000	      0.00000000	     13.21630170	    -19.33663832	      9.78077660	    121.42239072	     95.27663927	      0.00000000	      0.00000000
      0.02000000	     -6.13602599	      0.88149018	     -1.90372907	     -0.04859344	      0.87188203	      2.55184695	     42.97253732	      2.78996659	     -1.32166408	    -74.88585656	      0.31427465	      0.00000000	      0.00000000	     -7.69002504	     -0.52948785	      0.34164252	    -17.60523408	    -11.67506888	      0.00000000	      0.00000000	     -4.51088194	     -3.82455676	     -6.74418489	    -35.87960403	    -26.86251642	      6.75379944	    119.13049399	     78.77946103	      0.00000000	      0.00000000	     13.42005993	    -18.35974456	      9.93081457	    122.72202602	     96.02990293	      0.00000000	      0.00000000
      0.03000000	     -6.31335090	     -0.28765683	     -1.90795426	     -0.04700247	      0.88060870	      2.55343496	     42.28985361	      3.56876729	     -1.95804008	    -67.57632253	      0.21524487	      0.00000000	      0.00000000	    -10.36128048	     -2.05569469	     -1.96228793	    -14.72717106	    -18.90743591	      0.00000000	      0.00000000	     -3.95765765	     -2.39073136	     -7.57362358	    -38.34226594	    -27.07351613	      4.72811518	    120.25359038	     78.39811520	      0.00000000	      0.00000000	     13.61235998	    -17.38189378	     10.27749604	    123.97583271	     96.64800108	      0.00000000	      0.00000000
      0.04000000	     -6.46182920	     -1.21480368	     -1.72945665	     -0.04552232	      0.88900226	      2.55459861	     41.18654661	      4.01947426	     -2.52286628	    -59.80699288	     -0.01020666	      0.00000000	      0.00000000	    -12.52512122	     -3.26452157	     -3.90391403	    -12.70607101	    -25.27849954	      0.00000000	      0.00000000	     -3.54993971	     -1.15454669	     -8.39749214	    -40.63603673	    -27.06624941	      2.84010190	    121.27783615	     78.05384505	      0.00000000	      0.00000000	     13.79160826	    -16.43949143	     10.84720121	    125.16864051	     97.04475844	      0.00000000	      0.00000000
      0.05000000	     -6.60434186	     -1.80701718	     -1.38067249	     -0.04418504	      0.89676499	      2.55537202	     39.73721824	      4.06554944	     -3.00184661	    -51.68001933	     -0.38064589	      0.00000000	      0.00000000	    -14.10127310	     -4.11312596	     -5.24493317	    -11.83490882	    -30.36050146	      0.00000000	      0.00000000	     -3.22154114	     -0.21358731	     -9.19767207	    -42.68270776	    -26.86623068	      1.17317793	    122.16587673	     77.77863297	      0.00000000	      0.00000000	     13.95954278	    -15.56555138	     11.63138348	    126.30687245	     97.15727071	      0.00000000	      0.00000000
      0.06000000	     -6.77059730	     -2.04228479	     -0.89116892	     -0.04294262	      0.90340611	      2.55582653	     38.07234847	      3.69322330	     -3.42882583	    -43.38852983	     -0.89044277	      0.00000000	      0.00000000	    -15.06380863	     -4.58974333	     -5.82830638	    -12.20470758	    -33.90842319	      0.00000000	      0.00000000	     -2.87251116	      0.37382632	     -9.96610646	    -44.41546981	    -26.54189649	     -0.21133157	    122.89975350	     77.60134150	      0.00000000	      0.00000000	     14.11007096	    -14.77589530	     12.59263413	    127.39934677	     96.98301491	      0.00000000	      0.00000000
      0.07000000	     -6.99242516	     -1.95783137	     -0.29516389	     -0.04180536	      0.90866269	      2.55591641	     36.35917174	      2.95989852	     -3.89021554	    -35.22140519	     -1.50651052	      0.00000000	      0.00000000	    -15.44885253	     -4.73124787	     -5.63016944	    -13.69191519	    -35.92930961	      0.00000000	      0.00000000	     -2.42727028	      0.61846069	    -10.71091100	    -45.77586389	    -26.18030860	     -1.27182012	    123.47225078	     77.54226060	      0.00000000	      0.00000000	     14.22007715	    -14.06544686	     13.68264042	    128.41889436	     96.60019164	      0.00000000	      0.00000000
      0.08000000	     -7.29103003	     -1.63918372	      0.37242987	     -0.04098076	      0.91251304	      2.55564880	     34.76769329	      1.97994059	     -4.50595459	    -27.52817094	     -2.17248810	      0.00000000	      0.00000000	    -15.34770970	     -4.61760046	     -4.76305990	    -16.04203862	    -36.66492761	      0.00000000	      0.00000000	     -1.87291504	      0.60522343	    -11.45234376	    -46.71508225	    -25.85763619	     -1.97774995	    123.86996285	     77.61082002	      0.00000000	      0.00000000	     14.25740161	    -13.42015514	     14.85507886	    129.28846007	     96.15550656	      0.00000000	      0.00000000
      0.09000000	     -7.66130539	     -1.20431250	      1.07516636	     -0.04049378	      0.91505851	      2.55527990	     33.42508928	      0.89601991	     -5.38838197	    -20.65269312	     -2.81792683	      0.00000000	      0.00000000	    -14.87896753	     -4.34944844	     -3.43436894	    -18.98964396	    -36.50393797	      0.00000000	      0.00000000	     -1.24497379	      0.46037482	    -12.20089504	    -47.19970590	    -25.61917126	     -2.30880795	    124.06425816	     77.80654607	      0.00000000	      0.00000000	     14.19804757	    -12.83570182	     16.07043150	    129.91689965	     95.81896242	      0.00000000	      0.00000000
      0.10000000	     -8.07073221	     -0.76854117	      1.77485582	     -0.04005159	      0.91653695	      2.55512811	     32.39355298	     -0.15392247	     -6.58546689	    -14.86772040	     -3.36842931	      0.00000000	      0.00000000	    -14.15098629	     -4.01878135	     -1.88110427	    -22.35353867	    -35.86172387	      0.00000000	      0.00000000	     -0.58947505	      0.29815483	    -12.93101458	    -47.21433776	    -25.47697303	     -2.26532110	    124.01914524	     78.12210265	      0.00000000	      0.00000000	     14.03699487	    -12.32670568	     17.29877177	    130.25515167	     95.72616961	      0.00000000	      0.00000000
      0.11000000	     -8.47843819	     -0.40314256	      2.42779027	     -0.03959504	      0.91714613	      2.55526514	     31.68254721	     -1.06599894	     -8.03390780	    -10.34077119	     -3.75121216	      0.00000000	      0.00000000	    -13.22588859	     -3.67973075	     -0.31099409	    -26.06675220	    -35.07674606	      0.00000000	      0.00000000	      0.05033447	      0.18291425	    -13.57721256	    -46.76119523	    -25.42040621	     -1.87765640	    123.70941586	     78.54663605	      0.00000000	      0.00000000	     13.78917211	    -11.92092554	     18.52088669	    130.31852088	     95.93669926	      0.00000000	      0.00000000
      0.12000000	     -8.85274500	     -0.11861633	      2.98151977	     -0.03946927	      0.91681149	      2.55566470	     31.27538954	     -1.78774033	     -9.55154635	     -7.13608011	     -3.89446555	      0.00000000	      0.00000000	    -12.10658465	     -3.33420190	      1.12835603	    -30.14060847	    -34.35898787	      0.00000000	      0.00000000	      0.62564977	      0.12928044	    -14.05932561	    -45.86175279	    -25.42893584	     -1.20249526	    123.13358252	     79.06751254	      0.00000000	      0.00000000	     13.48395513	    -11.64455316	     19.72555776	    130.16031825	     96.42555339	      0.00000000	      0.00000000
      0.13000000	     -9.17561295	      0.11073250	      3.38386344	     -0.03994146	      0.91533638	      2.55635408	     31.14550795	     -2.31844681	    -10.87601147	     -5.23590777	     -3.72934906	      0.00000000	      0.00000000	    -10.76990509	     -2.94988094	      2.35187233	    -34.60099236	    -33.79385254	      0.00000000	      0.00000000	      1.08961756	      0.12883381	    -14.31344580	    -44.55764076	    -25.48108869	     -0.30807252	    122.31264206	     79.66873157	      0.00000000	      0.00000000	     13.15452106	    -11.50854798	     20.90422843	    129.83159235	     97.10510383	      0.00000000	      0.00000000
      0.14000000	     -9.44004478	      0.30463660	      3.60100933	     -0.04097232	      0.91266894	      2.55733596	     31.25064013	     -2.68874855	    -11.73353841	     -4.56154133	     -3.20910027	      0.00000000	      0.00000000	     -9.22049935	     -2.50582578	      3.32520380	    -39.43604936	    -33.37766750	      0.00000000	      0.00000000	      1.41867636	      0.17620787	    -14.30706790	    -42.90504602	    -25.55903464	      0.74210549	    121.27858173	     80.32573123	      0.00000000	      0.00000000	     12.82319033	    -11.50409727	     22.04578614	    129.35815797	     97.86190594	      0.00000000	      0.00000000
